HIERARCHY
ROOT Hip
{
	OFFSET	0.00  0.00  0.00 
	CHANNELS 6 Xposition Yposition Zposition Xrotation Zrotation Yrotation
	JOINT Abdomen
	{
		OFFSET	0.000000 0.000000 0.000000
		CHANNELS 3 Xrotation Zrotation Yrotation
		JOINT Chest
		{
			OFFSET	0.000000 2.777286 -0.023671
			CHANNELS 3 Xrotation Zrotation Yrotation
			JOINT neckDummy
			{
				OFFSET	0.000000 9.927062 -0.986511
				CHANNELS 3 Xrotation Yrotation Zrotation
				JOINT Neck
				{
					OFFSET	0.000000 2.219609 0.201362
					CHANNELS 3 Xrotation Zrotation Yrotation
					JOINT Head
					{
						OFFSET	0.000000 3.192896 0.565150
						CHANNELS 3 Xrotation Zrotation Yrotation
						End Site
						{
							OFFSET 0.000000 10.377339 0.000000
						}
					}
				}
			}
			JOINT Left Collar
			{
				OFFSET	0.586852 9.927062 -0.986511
				CHANNELS 3 Yrotation Zrotation Xrotation
				JOINT Left Shoulder
				{
					OFFSET	5.792460 0.910302 -0.408037
					CHANNELS 3 Zrotation Yrotation Xrotation
					JOINT Left Forearm
					{
						OFFSET	11.068519 -0.345045 -0.430691
						CHANNELS 3 Yrotation Zrotation Xrotation
						JOINT Left Hand
						{
							OFFSET	13.842951 -0.221455 0.465278
							CHANNELS 3 Zrotation Yrotation Xrotation
							End Site
							{
								OFFSET 10.377336 0.000000 0.000000
							}
						}
					}
				}
			}
			JOINT Right Collar
			{
				OFFSET	-0.586852 9.927062 -0.986511
				CHANNELS 3 Yrotation Zrotation Xrotation
				JOINT Right Shoulder
				{
					OFFSET	-5.792460 0.910302 -0.408037
					CHANNELS 3 Zrotation Yrotation Xrotation
					JOINT Right Forearm
					{
						OFFSET	-11.068519 -0.345045 -0.430691
						CHANNELS 3 Yrotation Zrotation Xrotation
						JOINT Right Hand
						{
							OFFSET	-13.842951 -0.221455 0.465278
							CHANNELS 3 Zrotation Yrotation Xrotation
							End Site
							{
								OFFSET -10.377336 0.000000 0.000000
							}
						}
					}
				}
			}
		}
	}
	JOINT Left Thigh
	{
		OFFSET	3.119614 -6.122939 -0.010087
		CHANNELS 3 Xrotation Zrotation Yrotation
		JOINT Left Shin
		{
			OFFSET	-0.748289 -20.447297 -0.646383
			CHANNELS 3 Xrotation Zrotation Yrotation
			JOINT Left Foot
			{
				OFFSET	-0.250011 -16.935575 -0.168725
				CHANNELS 3 Xrotation Yrotation Zrotation
				End Site
				{
					OFFSET 0.000000 0.000000 10.377336
				}
			}
		}
	}
	JOINT Right Thigh
	{
		OFFSET	-3.119614 -6.122939 -0.010087
		CHANNELS 3 Xrotation Zrotation Yrotation
		JOINT Right Shin
		{
			OFFSET	0.748289 -20.447297 -0.646383
			CHANNELS 3 Xrotation Zrotation Yrotation
			JOINT Right Foot
			{
				OFFSET	0.250011 -16.935575 -0.168725
				CHANNELS 3 Xrotation Yrotation Zrotation
				End Site
				{
					OFFSET 0.000000 0.000000 10.377336
				}
			}
		}
	}
}
MOTION
Frames:     10
Frame Time: 0.033333
0 0 0 0 0 0 0 0 0 0 0 0 0 0 0 0 0 0 0 0 0 0 0 0 0 0 0 0 0 0 0 0 0 0 0 0 0 0 0 0 0 0 0 0 0 0 0 0 0 0 0 0 0 0 0 0 0 0 0 0 0 0 0 
0.033637 42.205128 1.524028 3.649013 -3.069552 6.275024 1.471821 2.406079 -4.111219 0.177351 1.662727 -13.709224 0.000000 0.000000 0.000000 0.524329 -0.059035 -1.146069 4.664011 -1.515386 11.454688 -11.638076 -3.809148 -0.196097 -72.585648 -12.857738 8.194395 -27.330011 0.000000 9.195996 -6.095202 -7.640958 0.061057 -3.863951 6.129982 -0.581274 68.606377 -15.515290 -2.211308 9.882620 0.000000 16.403736 5.812747 -0.716969 0.184766 11.043233 3.410159 -1.059404 16.410444 -4.615650 -2.625220 -3.119148 -1.195129 2.958230 -30.571278 0.529766 -5.574524 8.500704 1.388658 0.217625 0.364319 -8.253772 -0.301864 
0.049719 41.740166 1.524028 4.050931 -4.296137 7.146695 0.572629 4.164570 -5.736820 0.314824 1.175085 -11.253574 0.000000 0.000000 0.000000 0.178410 0.407029 -1.335181 4.200935 -1.297554 9.377798 -10.242314 -5.180961 0.051865 -74.095589 -13.099730 13.216421 -30.582531 0.000000 9.014328 -2.426802 -13.757255 0.294750 -3.326567 9.751065 -0.456380 70.274620 -14.755496 -3.788837 8.102400 0.000000 4.760576 0.914530 -0.303190 -0.019962 10.001599 5.264215 -2.707337 27.880955 -4.052340 0.716346 6.110717 -4.457249 -0.461750 -26.161005 2.114099 -4.193523 3.972862 2.263568 -0.058356 8.920258 -9.747322 -2.569604 
0.070976 41.731514 1.524028 5.399858 -4.868404 6.377546 -0.453485 5.148264 -4.470879 0.671400 0.909593 -8.089109 0.000000 0.000000 0.000000 0.035461 0.462079 -1.198271 3.797889 -1.079085 6.753572 -7.329588 -6.749838 -0.251759 -75.890015 -10.713328 16.468693 -31.836702 0.000000 12.887011 1.306084 -14.397549 0.189406 -2.581821 12.247764 -1.997238 72.202118 -13.408587 -6.335517 6.343472 0.000000 -1.496518 0.155499 -0.195849 -0.000322 1.047644 5.576208 -3.335476 45.434265 -4.253503 2.279416 12.906674 -5.169080 -2.744624 -25.728092 3.332417 -3.424220 11.070789 3.508053 -0.058061 4.491042 -9.552843 -5.060407 
0.083012 42.309872 1.524028 5.685380 -4.466559 3.780599 -1.019706 4.352284 -2.381178 1.114708 1.043936 -4.915875 0.000000 0.000000 0.000000 -0.077623 0.212762 -0.726839 3.656110 -0.472750 3.967183 -2.572825 -6.720624 -0.589357 -78.042465 -6.166909 14.726253 -27.950478 0.000000 10.680548 1.182979 -12.563655 0.222653 -2.258664 10.726942 -5.538920 74.044624 -11.605340 -8.438681 6.676929 0.000000 -1.459563 1.797447 -2.901036 -0.056581 -9.625670 4.385253 -1.382316 54.985035 -2.742132 -1.045693 14.053508 0.517980 -4.633132 -20.129023 4.690709 -3.491037 10.858813 2.204756 -0.001634 -1.267726 -6.380565 -8.151768 
0.079526 43.064907 1.524028 5.573509 -3.747152 0.425573 -1.073305 3.809995 -0.623300 1.926658 0.244373 -1.694594 0.000000 0.000000 0.000000 -0.161034 -0.106997 -0.188688 3.713642 0.129242 1.861759 2.432002 -5.595374 -0.541246 -79.423149 -1.410409 9.626211 -21.955070 0.000000 7.395554 -0.600774 -8.363064 0.243561 -1.555299 6.623583 -8.342672 75.879639 -9.526641 -8.321048 10.599443 0.000000 1.691405 4.995184 -7.635799 -0.350724 -21.105267 3.835485 -0.054471 63.932762 -2.014128 -4.199304 9.664289 9.268079 -4.652293 -12.341219 4.877847 -3.072900 5.090677 1.945730 0.142456 -1.263571 -2.709348 -8.289670 
0.054584 43.538116 1.524028 5.562220 -2.810967 -2.089873 -1.255509 3.017254 0.090062 2.878665 -0.374891 1.756984 0.000000 0.000000 0.000000 -0.140586 -0.119259 0.189291 3.838876 0.548020 -0.116433 5.780151 -3.741207 0.814162 -79.377113 1.991196 3.254566 -16.618589 0.000000 4.526581 -1.813550 -4.246672 0.217113 0.664126 0.152545 -10.006464 77.633507 -7.310958 -6.132282 20.510214 0.000000 4.041486 4.792884 -3.573467 0.079326 -28.192652 3.850066 0.855943 60.030575 -2.703191 -5.642477 7.944763 11.426470 -2.933067 -6.437274 4.703012 -2.928423 0.820905 1.142054 -0.341456 -1.739974 0.249952 -8.082815 
0.009895 43.747864 1.524028 5.813180 -1.565616 -2.648952 -1.632274 1.585317 -0.338312 3.372961 -0.868801 5.312413 0.000000 0.000000 0.000000 -0.140025 -0.034578 0.359503 3.842385 1.169853 -2.333798 6.774337 -1.632092 2.622766 -77.149452 4.609591 -2.866718 -13.699683 0.000000 0.939090 -1.150065 -0.743626 0.224056 4.252098 -4.164732 -11.497287 78.996162 -5.162397 -3.582826 28.518940 0.000000 3.524830 4.072457 -2.203157 -0.056715 -31.311226 2.621631 1.427362 49.353092 -1.467712 -2.830355 2.431664 5.844039 -1.005978 -1.849695 3.041505 -3.022135 0.346918 1.175645 -0.881813 -4.300439 2.010597 -7.134179 
-0.046280 43.625595 1.524028 6.141676 0.056794 -3.124899 -1.649508 -0.404605 -0.060694 2.043275 -1.244674 8.701845 0.000000 0.000000 0.000000 -0.171162 0.439806 0.290436 4.083677 1.821164 -5.384973 6.200631 -0.453932 2.379789 -74.385391 7.785020 -8.618123 -11.167847 0.000000 -0.206776 0.126812 3.552292 0.428533 7.901174 -4.057142 -11.955876 77.997818 -2.384353 -0.966527 32.386066 0.000000 0.946508 3.535443 0.318990 0.013835 -30.307581 0.872614 2.832393 27.088341 -0.368032 1.085193 -2.957128 0.430646 1.064680 2.846038 1.487594 -2.538595 1.671501 0.982845 -0.672326 -5.131299 2.711067 -6.207324 
-0.039665 43.041237 1.524028 5.953593 0.494957 -4.426476 -0.670920 -1.075746 1.698316 0.145348 -1.429100 10.836525 0.000000 0.000000 0.000000 -0.173533 0.902300 0.160198 4.378221 2.196363 -7.396379 6.540327 -0.315207 1.461457 -72.317726 10.573610 -11.646926 -8.726796 0.000000 2.864478 0.416057 7.812849 0.383369 8.012686 -4.197780 -10.812477 76.083359 0.833981 2.611199 33.779667 0.000000 0.580107 3.515579 5.126849 0.336984 -28.667410 -0.009335 4.804595 9.337081 -0.174060 1.429702 -6.562768 1.247304 1.476256 9.102274 0.520020 0.884654 1.350562 0.841119 -1.208081 -4.072673 3.069206 -4.286437 
